<svg id="Layer_1" style="enable-background:new 0 0 512 512" version="1.1" viewBox="0 0 512 512" xml:space="preserve" xmlns="http://www.w3.org/2000/svg"><style>.st1{fill:#dcc5a1}.st2{fill:#edd9b4}.st4{fill:#fff}.st5{fill:#e5917a}.st7{fill:#342214}.st8{fill:#3e7ebc}.st9{fill:#89bce5}.st11{fill:#e6e6e5}.st13{fill:#314e67}.st14{fill-rule:evenodd;clip-rule:evenodd;fill:#fff}</style><path d="M83.2 374.5c10-8.9 34.1-27.7 108.8-61.8.5-.2 1-.5 1.5-.7l16.7-7.5c.3-.1.6-.3.9-.4v20.3l3.8 32.9c18.1-5.2 41.2-10.7 41.2-10.7l40.4 13.9 4.2-36.2v-20.2c.5.2.9.4 1.4.6l7.8 3.5c5 2.2 9.7 4.4 14.3 6.5 9.6 4.4 18.3 8.5 26.2 12.4 51.6 25.3 69.7 39.8 78.3 47.4 3.4 3 6.6 7.8 9.4 13.8 21.2-33.4 33.5-73 33.5-115.5C471.7 153.6 375.1 57 256 57S40.3 153.6 40.3 272.8c0 42.5 12.3 82.1 33.5 115.5 2.9-6 6-10.7 9.4-13.8z" style="fill:#00b8e9"/><path class="st1" d="M211.2 222.1v102.4c12.3 14.6 28.6 22.1 44.8 22.3V180.6c-22.4 0-44.8 13.8-44.8 41.5z"/><path class="st2" d="M256 180.6v166.1c16.3.1 32.5-7.2 44.8-22.3V222.1c0-27.7-22.4-41.5-44.8-41.5z"/><path d="M300.8 220.2v65.5c-17 11.8-33.3 18.4-44.8 18.4s-27.9-6.6-44.8-18.4v-65.5c0-52.8 89.6-52.8 89.6 0" style="fill-rule:evenodd;clip-rule:evenodd;fill:#bc9f82"/><path class="st4" d="M204.4 219.2s43.6 14.7 98.4 0c0 0-40.8 49.4-98.4 0"/><path class="st5" d="M204.4 219.2s45.5 15.8 98.4 0c-31.6-1.6-25-3.2-98.4 0"/><path class="st5" d="M204.4 219.2s48.6 47.1 98.4 0c0 0-10.7 34.1-46.7 34.2-36 .2-51.7-34.2-51.7-34.2"/><path class="st1" d="M256 38.3c-91.4 0-107.3 67.1-103.5 123-4-3.4-8.3-4.9-12.1-3.6-7.9 2.6-10.7 15.8-6.2 29.4 4.5 13.7 14.5 22.6 22.4 20 1-.3 2-.9 2.8-1.6 3.7 15.1 7.9 25.9 10 29 10.8 16 62.2 58.3 86.5 58.3l.1-254.5z"/><path class="st2" d="M371.3 157.7c-3.7-1.2-7.9.1-11.7 3.3 3.7-55.9-12.3-122.7-103.6-122.7v254.6c24.3 0 75.7-42.3 86.5-58.3 2.1-3.1 6.2-13.8 9.9-28.7.8.6 1.6 1 2.5 1.3 7.9 2.6 18-6.4 22.4-20 4.6-13.7 1.9-26.9-6-29.5z"/><path d="M187.2 99.1c-8.7 47.7-30.6 43.2-28.9 99.2-7-43.6-17.5-101.7 12.1-139.9 23.7-30.6 102.2-52.4 153-15.8 56.1 12 38.6 126.3 31.1 147.9-5.3-35-17-49.6-31.9-90.7-20.1 14.5-109.5 17.7-135.4-.7" style="fill-rule:evenodd;clip-rule:evenodd;fill:#422f18"/><path class="st7" d="M212.9 158.6c5.8 0 10.6 5.4 10.6 12s-4.7 12-10.6 12c-5.8 0-10.6-5.4-10.6-12 0-6.7 4.7-12 10.6-12M298.7 158.6c5.8 0 10.6 5.4 10.6 12s-4.7 12-10.6 12c-5.8 0-10.6-5.4-10.6-12 .1-6.7 4.8-12 10.6-12"/><path class="st4" d="M234 234.5c3.8 8.3 12.1 14.1 21.8 14.1 9.7 0 18.1-5.8 21.8-14.1H234z"/><path class="st8" d="m193.5 312 16.7-7.5c-5.7 2.6-11.3 5.1-16.7 7.5zM302.2 304.8l7.8 3.5c-2.5-1.2-5.1-2.3-7.8-3.5z"/><path class="st9" d="M192 312.7c.5-.2 1-.5 1.5-.7l-1.5.7zM211.2 304.1l-.9.4c.3-.1.6-.3.9-.4zM324.2 314.6l-14.2-6.3c5 2.2 9.7 4.4 14.3 6.5l-.1-.2zM300.8 304.2c.5.2.9.4 1.4.6l-1.4-.6z"/><path style="fill:#be1e2d" d="M256 488.5z"/><path class="st8" d="M137.1 452.8c1.2-9.4 2-15.2 2-15.2v16.5c15.7 10.2 32.9 18.3 51.1 24.2l-29.9-60.7 35.2-23.5-43-20.1 39.5-61.3c-74.7 34.1-98.8 52.9-108.8 61.8-3.4 3-6.6 7.8-9.4 13.8 16.3 25.7 37.9 47.7 63.3 64.5zM428.8 374.5c-8.5-7.6-26.7-22.1-78.3-47.4-7.9-3.9-16.6-8-26.2-12.4l35 59.3-43 20.1 35.2 23.5-29.9 60.8c18.3-5.8 35.5-14 51.3-24.2v-16.5s.8 5.7 2 15.2c25.4-16.8 47-38.8 63.3-64.5-2.9-6.1-6-10.8-9.4-13.9z"/><path class="st11" d="m230 486.9.1 1.1c.9 0 1.7.1 2.6.1l.1-.8c-.9-.1-1.8-.2-2.8-.4zM230 486.9c.9.1 1.9.2 2.8.3l14.7-103-12-16.6 20.6-21s-23.1 5.5-41.2 10.7L230 486.9zM279.2 487.3l.1.8c.8 0 1.6-.1 2.4-.1l.1-1c-.9.1-1.8.2-2.6.3zM256.2 346.7l19.9 21-11.8 16.6 14.7 103 2.7-.3 14.8-126.4-40.3-13.9z"/><path class="st9" d="m215 357.4-3.8-32.9v-20.3c-.3.1-.6.3-.9.4l-16.7 7.5c-.5.2-1 .5-1.5.7L152.5 374l43 20.1-35.2 23.5 29.9 60.7c8.4 2.7 17 4.9 25.8 6.5 4.6.9 9.3 1.6 14 2.2l-15-129.6zM359.3 374l-35-59.3c-4.6-2.1-9.3-4.3-14.3-6.5l-7.8-3.5c-.5-.2-.9-.4-1.4-.6v20.2l-4.2 36.2L281.8 487c7.2-.9 14.3-2.1 21.3-3.6 6.3-1.4 12.4-3.1 18.5-5l29.9-60.8-35.2-23.5 43-20.1z"/><path d="m264.4 384.3 11.8-16.6-19.9-21-20.6 21 12 16.6-14.7 103c7.6.8 15.3 1.2 23.1 1.2 7.8 0 15.5-.4 23.1-1.2l-14.8-103z" style="fill:#1b75bc"/><path class="st13" d="M137.1 452.8c.7.4 1.3.9 2 1.3v-16.5s-.8 5.7-2 15.2zM372.9 454.1c.7-.4 1.3-.9 2-1.3-1.2-9.4-2-15.2-2-15.2s.1 6.2 0 16.5z"/><path class="st14" d="m211.2 290.6-4 15.2 11 79.4 38-38.5zM300.8 290.6l3.1 15-10.3 80.4-37.4-39.3z"/></svg>