<svg id="Layer_1" style="enable-background:new 0 0 512 512" version="1.1" viewBox="0 0 512 512" xml:space="preserve" xmlns="http://www.w3.org/2000/svg"><style>.st1{fill-rule:evenodd;clip-rule:evenodd;fill:#843d1c}.st3{fill:#dcc5a1}.st4{fill:#edd9b4}.st5{fill:#bc9f82}.st9{fill:#342214}.st10{fill:#c93938}.st11{fill:#be1e2d}</style><path d="M210.4 330v23.3h91.1V330c27.1 37.8 84.8 44.9 130.8 55.2 2.3.5 4.5 1.2 6.6 1.9 20.8-33.2 32.8-72.3 32.8-114.3C471.7 153.6 375.1 57 256 57S40.3 153.6 40.3 272.8c0 42 12 81.2 32.8 114.3 2.1-.8 4.3-1.4 6.6-1.9 46-10.3 103.7-17.4 130.7-55.2z" style="fill:#d87459"/><path class="st1" d="M203.8 36.5c17.1-15.9 108.8-28.1 145.5 31.8 36.7 59.9 17.1 45.2 37.9 83.2 20.8 37.9 20.8 42.8 1.2 69.7-19.6 26.9-40.3 47.7-23.2 66 17.1 18.3 24.5 28.1 7.3 53.8-17.1 25.7 41.6 55 18.3 86.8-23.2 31.8-231.1 41.6-244.6 4.9s8.6-62.4-4.9-80.7c-13.5-18.4-34.2-36.7 0-62.4 19.8-14.9-8.9-28.9-22.7-54.7-15.7-29.3-5.8-66 1.9-77.3 18.5-26.9 14.8-128.4 83.3-121.1"/><path d="M301.6 353.3c-.1.1-.2.2 0 0h-91.1c.1.2.1.1 0 0l21.2 133.8c8 .9 16.1 1.4 24.3 1.4s16.3-.5 24.3-1.4l21.3-133.8z" style="fill:#564e43"/><path class="st3" d="M256 339.2c-11.7 0-28.3-7.5-45.5-20.8v34.9c.3.3.6.6.8 1 12.4 15.2 28.6 23.2 44.7 23.3v-38.4z"/><path class="st4" d="M256 377.6c16.2.1 32.3-7.5 44.7-23.3.3-.3.6-.7.9-1v-34.9c-17.2 13.3-33.8 20.8-45.6 20.8v38.4z"/><path class="st5" d="M256 339.2V196.5c-22.8 0-45.6 15.1-45.6 45.2v76.7c17.3 13.3 33.9 20.8 45.6 20.8zM256 196.5v142.8c11.7 0 28.3-7.5 45.6-20.8v-76.7c0-30.2-22.8-45.3-45.6-45.3z"/><path class="st1" d="M323.6 173.7c19.9 22.6 29.8 42.2 22.2 66.3-7.7 24.2-4.6 42.8 22.2 58.2 26.7 15.4 17.1 18.4 10.9 46.3-3.8 17.4 10.7 33.2 30.2 33.2 3.7 0-20.1-8.7-17-26.4 5-28.5 31-44.3 6.1-71.3s-16.2-30.8-8.9-47.7c7.3-17-13.3-49-39-75.8-157-163.9-46.6-5.4-26.7 17.2"/><path class="st1" d="M190.7 178.9c-20.9 21.8-31.6 40.9-24.9 65.4 6.7 24.5 2.8 43-24.6 57.2-27.3 14.2-17.8 17.6-12.8 45.8 3.1 17.5-12.1 32.7-31.6 31.9-3.7-.2 20.5-7.9 18.1-25.7-3.8-28.7-29.1-45.6-3.1-71.5s17.5-30.1 10.9-47.3c-6.6-17.2 15.3-48.3 42.1-74.1 163.7-157.2 46.8-3.4 25.9 18.3"/><path class="st3" d="M254.7 49.1c-79.2 0-116.5 70.3-112.8 131.6-4.6-2.9-9.4-3.7-13.4-2-9.2 4-11.2 20.1-4.3 36.1 6.9 16 19.9 25.7 29.2 21.7 1.3-.6 2.4-1.4 3.4-2.4 25 50.4 73.2 83.7 97.9 83.7.4 0 .9-.1 1.3-.1V49.1h-1.3z"/><path class="st4" d="M383.5 178.7c-4.8-2.1-10.6-.4-16.1 3.9C372 121.2 335.1 49.9 256 49.1v268.7c25.3-1.1 73.3-34.9 97.6-85.6 1.3 1.9 3 3.4 5 4.3 9.2 4 22.3-5.8 29.2-21.7 6.8-16 4.9-32.2-4.3-36.1z"/><path class="st1" d="M208 78.2c7 34.2 43.3 52.3 77.5 57.4 34.2 5 64.4 5 45.3 28.2-19.1 23.1-8.1 44.3 10.1 57.4 18.1 13.1 12.1 48.3-4 70.4-16.1 22.1-20.1 41.3-1 62.4s9.1 21.9-7 48.1c-10 16.3-2.4 35.2 15.8 39.5 3.4.8-15.5-13.1-6-29.9 15.3-27 36.5-36.6 23.5-68.8-13.1-32.2-5-33.2 8-48.3 13.1-15.1 18.1-53.3 2-84.5-16.1-31.2 11.1-21.1 8-59.4-3.1-38.3-96.7-179.2-172.2-72.5"/><path class="st1" d="M303.4 71.5c22.5 20.1 34.6 39.9 29.9 64.8-4.8 24.9.6 43.1 28.9 55.1 28.3 12.1 19.1 16.2 16.3 44.7-1.8 17.7 14.6 31.7 33.9 29.3 3.7-.4-21-6.2-20-24.2 1.6-28.9 25.5-47.7-2.4-71.5-27.9-23.9-30.5-31.7-25.3-49.4 5.3-17.7-8.7-43.6-37-67.5-34.1-29.1-46.7-1.4-24.3 18.7M204.2 71.5c-22.5 20.1-34.6 39.9-29.9 64.8 4.8 24.9-.6 43.1-28.9 55.1-28.4 12.1-19.1 16.2-16.3 44.7 1.7 17.7-14.6 31.7-33.9 29.3-3.7-.4 21-6.2 20-24.2-1.6-28.9-25.5-47.7 2.4-71.5 27.9-23.9 30.5-31.7 25.3-49.4-5.2-17.7 8.7-43.6 37-67.5 34.1-29.1 46.8-1.4 24.3 18.7"/><path class="st1" d="M268.4 49.3c-23.6 13.7-105 92.8-114.1 120.5-9.2 27.7.4 50.3 5.9 70.6-19.9-5-69.2-227.1 108.2-191.1"/><path d="M268.5 261.2s.5 7.9-13 7.9c-3.9 0-12.8-1.7-12.8-7.7 7.9 2 17.3 2.4 25.8-.2" style="fill:#d43329"/><path d="M260.6 258c3 .4 8.2 3.1 7.9 3.2-8.4 2.6-17.9 2.1-25.8.2-.1 0-.2 0-.2-.1 2.7-1.1 6.2-3.4 8.8-3.2 1.4.1 3.1 1.2 4.4 1.2 1.8.1 3-1.6 4.9-1.3" style="fill:#ca3029"/><path d="M238.2 260.2c10.1 4.2 24.3 4.6 34.2-.2.2-.1.1-.5-.2-.4-11.9 3.8-21.9 3.1-34 .6 0-.1 0 0 0 0" style="fill:#a82623"/><path class="st9" d="M208.5 178.8c6.4 0 11.7 5.9 11.7 13.3 0 7.3-5.2 13.3-11.7 13.3-6.5 0-11.7-5.9-11.7-13.3 0-7.3 5.3-13.3 11.7-13.3M303.5 178.8c6.4 0 11.7 5.9 11.7 13.3 0 7.3-5.2 13.3-11.7 13.3-6.5 0-11.7-5.9-11.7-13.3 0-7.3 5.2-13.3 11.7-13.3"/><path class="st10" d="M210.4 353.3c-.1-.2 0-.1 0 0zM210.4 353.3c.1.1.2.2 0 0zM301.6 353.3c0-.1.1-.2 0 0zM301.6 353.3c-.2.2-.1.1 0 0z"/><path class="st11" d="M301.6 353.3c-.2.2-.1.1 0 0 0-.1.1-.2 0 0zM210.4 353.3c.1.1.2.2 0 0-.1-.2 0-.1 0 0z"/><path class="st10" d="m231.7 487.1-21.2-133.8c-.1-.1-.1-.2 0 0V330c-27.1 37.8-84.8 44.9-130.8 55.2-2.3.5-4.5 1.2-6.6 1.9 34 54.4 91.7 92.5 158.6 100zM301.6 330v23.3c.1-.2.1-.1 0 0l-21.2 133.8c66.9-7.5 124.6-45.6 158.6-100-2.1-.8-4.3-1.4-6.6-1.9-46.1-10.3-103.8-17.4-130.8-55.2z"/></svg>