<svg id="Layer_1" style="enable-background:new 0 0 512 512" version="1.1" viewBox="0 0 512 512" xml:space="preserve" xmlns="http://www.w3.org/2000/svg"><style>.st1{fill-rule:evenodd;clip-rule:evenodd;fill:#a24323}.st3{fill:#edd9b4}.st4{fill:#dcc5a1}.st8{fill:#fff}.st12{fill:#342214}</style><path d="M218.8 328.1c.4.6 16.1 1.1 33.5 1.7h7.3c17.5-.6 33.2-1.1 33.5-1.7 23.6 37.1 80.6 54.7 124 64.4 5.4 1.2 10.1 3.1 14.3 5.6 25.3-35.3 40.2-78.6 40.2-125.4C471.7 153.6 375.1 57 256 57S40.3 153.6 40.3 272.8c0 46.8 14.9 90.1 40.2 125.4 4.2-2.5 8.9-4.4 14.3-5.6 43.4-9.7 100.4-27.3 124-64.5z" style="fill:#55969d"/><path class="st1" d="M258.9 395.3c-123 2.5-136.7-142.6-132.3-214.3C134.9 47.3 256.2-6.3 305.7 39.6c52.6 0 77.3 65.4 83.2 140 8 99.4-28.7 213.6-130 215.7"/><path d="M249.3 488.4V394l6.7-6.9 6.7 6.9v94.4c69.6-2.1 130.9-37.2 168.8-90.2-4.2-2.5-8.9-4.4-14.3-5.6-43.4-9.7-100.4-27.3-124-64.4-.4.6-16.1 1.1-33.5 1.7h-7.3c-17.5-.6-33.2-1.1-33.5-1.7-23.6 37.1-80.6 54.7-124 64.4-5.4 1.2-10.1 3.1-14.3 5.6 37.8 53 99.1 88.1 168.7 90.2z" style="fill:#288085"/><path class="st3" d="M296.9 230.4c0-27-20.4-40.5-40.9-40.5V387l40.9-56.6v-100z"/><path class="st4" d="M215.1 230.4v100.1L256 387V189.8c-20.4 0-40.9 13.5-40.9 40.6z"/><path d="M296.9 230.4v67c-15.5 12.1-30.4 18.9-40.9 18.9s-25.4-6.8-40.9-18.9v-67c.1-54.1 81.8-54.1 81.8 0" style="fill-rule:evenodd;clip-rule:evenodd;fill:#bc9f82"/><path d="M235.8 170.4c-11.8-6.9-29.8-9.5-48.6-8.2-18.8 1.3-31.9 8.8-32.5 9.2-.6.4-.5 4.7-.5 7.4s.3 5 1.2 5.9c.9.9 5.7 2.5 7.4 9.9 1.7 7.4 5.8 23.3 17.3 32.6s24.4 11.3 40.1 5.9c15.7-5.4 21.3-18.7 22.5-21 1.2-2.3 4.6-13.5 6.1-16.4 1.5-2.9 3.3-4.4 5.6-4.4v-14.7c-4.7.1-6.8.7-18.6-6.2m5.9 25.3c-1.5 13.2-13.1 35.5-33 36.4-19.9.9-33-11.7-37.4-22.8-4.4-11.1-6.4-28.4 7.5-35.2 13.9-6.8 34.3-6.8 49-1.2 14.7 5.6 14.9 14 13.9 22.8" style="fill:#703d22"/><path d="M260 195.7c1.5 2.9 4.9 14.1 6.1 16.4 1.2 2.3 6.8 15.6 22.5 21s28.6 3.4 40.1-5.9 15.6-25.2 17.3-32.6c1.7-7.4 6.5-9 7.4-9.9.9-.9 1.2-3.2 1.2-5.9s.1-7-.5-7.4c-.6-.4-13.7-7.9-32.5-9.2-18.8-1.3-36.8 1.3-48.6 8.2-11.8 6.9-13.9 6.3-18.6 6.3v14.7c2.4 0 4.1 1.4 5.6 4.3m21-22.8c14.7-5.6 35.1-5.6 49 1.2 13.9 6.8 11.9 24.2 7.5 35.2-4.4 11.1-17.5 23.8-37.4 22.8-19.9-.9-31.5-23.2-33-36.4-1-8.8-.8-17.2 13.9-22.8" style="fill:#562c19"/><path class="st4" d="M151.3 163.1c-4.2-2.5-8.5-3.3-12.2-1.7-8.6 3.7-10.3 18.6-4 33.4 6.3 14.7 18.3 23.7 26.9 20.2 21.9 50.6 70 84.6 94 84.6V50.7c-69.3 0-104 58.1-104.7 112.4z"/><path class="st3" d="M375.2 161.4c-4.3-1.9-9.6-.4-14.5 3.3 0-54.7-34.7-114-104.7-114v248.9c24.2 0 72.7-34.5 94.4-85.7.6.4 1.2.8 1.8 1 8.6 3.7 20.6-5.3 27-20.1 6.4-14.8 4.6-29.7-4-33.4z"/><path class="st8" d="M296.9 330.4 256 387l1.5 1.5 28.1 29.1 40.4-58.5zM215.1 330.4 186 359.1l40.4 58.5 28.1-29.1 1.5-1.5z"/><path d="M266.9 255.9s.4 6.9-11.4 6.9c-3.4 0-11.2-1.5-11.2-6.7 7 1.6 15.2 2 22.6-.2" style="fill:#d43329"/><path d="M260.1 253c2.6.4 7.2 2.8 6.9 2.8-7.4 2.2-15.7 1.8-22.6.2-.1 0-.1 0-.2-.1 2.4-1 5.4-3 7.7-2.8 1.3.1 2.7 1 3.8 1 1.6.1 2.7-1.3 4.4-1.1" style="fill:#ca3029"/><path d="M240.4 255c8.9 3.7 21.2 4 29.9-.1.2-.1.1-.4-.2-.4-10.3 3.3-19 2.7-29.7.5 0-.1 0 0 0 0" style="fill:#a82623"/><path class="st12" d="M214.5 183.8c5.6 0 10.2 5.2 10.2 11.6 0 6.4-4.6 11.6-10.2 11.6-5.7 0-10.2-5.2-10.2-11.6-.1-6.4 4.5-11.6 10.2-11.6M297.5 183.8c5.6 0 10.2 5.2 10.2 11.6 0 6.4-4.6 11.6-10.2 11.6-5.7 0-10.2-5.2-10.2-11.6 0-6.4 4.6-11.6 10.2-11.6"/><path class="st1" d="M364.2 196.8C396.4 59 299.4 35.6 242.7 35.6c-63.8 0-111.8 75.7-101.1 163.8 34-20.5 64-61 138.3-127.1C269.1 91.7 248 127 176.3 190.9c38.6 6.4 110.4-42.2 148.7-93.1 9.3 36.1 22.4 75.7 39.2 99"/><path class="st8" d="M262.7 393.9 256 387l-6.7 6.9v94.4c2.2.1 4.5.1 6.7.1v-.1.1c2.3 0 4.5 0 6.7-.1v-94.4z"/></svg>