<svg width="56" height="56" fill="none" xmlns="http://www.w3.org/2000/svg"><path opacity=".1" d="M40.743 28c8.426 0 15.57 7.307 11.202 14.513A28 28 0 1 1 6.1 10.555c5.25-6.59 14.577-2.417 17.492 5.489l.43 1.165A16.499 16.499 0 0 0 39.5 28h1.242Z" fill="#005AAA"/><rect x="12" y="14" width="32" height="32" rx="10" fill="#005AAA"/><path d="M43.984 29.995c0 2.243-.045 4.493.013 6.736.097 3.97-2.399 7.039-5.579 8.405a10.094 10.094 0 0 1-4.005.838c-4.34.007-8.688.065-13.029-.019-3.27-.064-5.96-1.43-7.888-4.125C12.484 40.41 12 38.8 12 37.053V23.194c0-3.77 1.838-6.407 5.102-8.122 1.419-.741 2.96-1.057 4.566-1.064 4.212 0 8.43-.025 12.642.013 3.27.026 5.998 1.277 8.01 3.907 1.123 1.47 1.664 3.158 1.664 5.015v7.052Zm-29.604 0v7.09c0 1.057.245 2.05.793 2.946 1.439 2.353 3.612 3.5 6.308 3.546 4.328.064 8.662.025 12.996.012 1.065 0 2.097-.219 3.058-.676 2.618-1.251 4.082-3.243 4.07-6.234-.026-4.577-.007-9.153-.007-13.73 0-1.296-.368-2.482-1.135-3.526-1.484-2.005-3.535-2.99-5.986-3.017-4.32-.051-8.642-.019-12.964-.012-.922 0-1.812.186-2.676.509-2.374.883-4.58 3.12-4.476 6.414.077 2.23.019 4.454.019 6.678Z" fill="#FFC700"/><path d="M28.028 36.827c-4.16 0-7.514-3.313-7.52-7.438-.007-4.061 3.373-7.387 7.507-7.387 4.147-.007 7.514 3.313 7.52 7.406 0 4.087-3.36 7.413-7.507 7.42Zm0-2.385c2.831 0 5.127-2.262 5.12-5.047-.006-2.759-2.302-5.015-5.12-5.015-2.832 0-5.14 2.25-5.14 5.028.006 2.785 2.308 5.04 5.14 5.034ZM36.406 19.745c.87 0 1.58.742 1.58 1.65-.006.91-.722 1.644-1.593 1.638-.858-.007-1.56-.741-1.56-1.631-.007-.909.702-1.657 1.573-1.657Z" fill="#FFC700"/></svg>