<svg width="78" height="70" fill="none" xmlns="http://www.w3.org/2000/svg"><path d="M22.462 69.72H3.587c-1.732 0-2.944-1.212-2.944-2.944V13.441c0-3.464 1.386-6.58 3.637-8.832C6.53 2.358 9.648.972 12.938.972c3.463 0 6.58 1.386 8.832 3.637a12.429 12.429 0 0 1 3.636 8.832v53.335c0 1.732-1.212 2.944-2.944 2.944ZM6.531 63.833h12.988V13.44c0-1.905-.693-3.464-1.905-4.676C16.4 7.553 14.843 6.86 12.938 6.86c-1.732 0-3.29.693-4.502 1.905-1.212 1.212-1.905 2.77-1.905 4.675v50.393Z" fill="#1E90FF"/><path d="M41.51 69.72H22.463c-1.558 0-2.943-1.212-2.943-2.944V13.441c0-3.464 1.385-6.58 3.636-8.832A12.429 12.429 0 0 1 31.987.972c3.463 0 6.58 1.386 8.831 3.637a12.428 12.428 0 0 1 3.637 8.832v53.335c0 1.732-1.386 2.944-2.944 2.944Zm-16.104-5.887h13.161V13.44c0-1.905-.693-3.464-1.905-4.676-1.212-1.212-2.944-1.905-4.675-1.905-1.732 0-3.464.693-4.676 1.905-1.039 1.212-1.905 2.77-1.905 4.675v50.393Z" fill="#1E90FF"/><path d="M75.279 64.698 56.923 69.72c-1.559.347-3.117-.52-3.637-2.078l-13.68-51.777c-1.039-3.29-.346-6.58 1.212-9.351V6.34c1.732-2.598 4.33-4.85 7.447-5.542l.173-.173c3.29-.866 6.58-.173 9.35 1.385 2.772 1.559 4.85 4.156 5.715 7.447l13.854 51.777c.52 1.559-.52 3.117-2.078 3.463Zm-16.97-1.385 12.64-3.463-13.16-49.007c-.52-1.559-1.559-2.944-2.944-3.81-1.385-.866-3.117-1.039-4.849-.692l-.346.173c-1.559.346-2.944 1.385-3.637 2.77l-.173.174c-.866 1.385-1.039 3.29-.693 5.022l13.161 48.833Z" fill="#FFC700"/></svg>