<svg width="120" height="120" fill="none" xmlns="http://www.w3.org/2000/svg"><path d="M26 89.3 37.4 58c.3-.9 1.3-1.3 2.1-1 .9.3 1.3 1.3 1 2.1L29.1 90.4c-.2.7-.9 1.1-1.6 1.1-.2 0-.4 0-.6-.1-.7-.3-1.2-1.2-.9-2.1ZM46.2 57c.9-.3 1.8.1 2.1 1l11.4 31.3c.3.9-.1 1.8-1 2.1-.2.1-.4.1-.6.1-.7 0-1.3-.4-1.6-1.1L45.2 59.1c-.3-.8.1-1.8 1-2.1Z" fill="#FFC700"/><path d="M22 63.5h41.6c3.6 0 6.5-2.9 6.5-6.5V31.2c0-3.6-2.9-6.5-6.5-6.5H22.1c-3.6 0-6.5 2.9-6.5 6.5V57c-.1 3.6 2.8 6.5 6.4 6.5Z" fill="#E8E8E8"/><path d="M88.3 46.9a8.4 8.4 0 1 0 0-16.8 8.4 8.4 0 0 0 0 16.8Z" fill="#FFD5AA"/><path d="M66 67c.3 0 .7 0 1-.2.8-.4 1.1-1.5.6-2.3L56.2 44.1c-.4-.8-1.5-1.1-2.3-.6-.8.4-1.1 1.5-.6 2.3l11.4 20.5c.3.3.7.6 1.3.7Z" fill="#FFD971"/><path d="M64.5 61.5 76 54.3c1.8-2.7 4.8-4.5 8.1-4.9 0 0 5.8-.3 8.1 0 6.9.9 12.2 6.8 12.2 13.8v11c0 2.3-1.8 4.1-4.1 4.1v14.1c0 1.6-1.3 3-3 3H76.9c-1.6 0-3-1.3-3-3V66.2l-4.7 2.9c-2.1 1.3-4.9.7-6.2-1.4-1.3-2.1-.7-4.9 1.5-6.2ZM22 34.6c0-1.2 1-2.2 2.2-2.2h25.5c1.2 0 2.2 1 2.2 2.2 0 1.2-1 2.2-2.2 2.2H24.2c-1.2 0-2.2-1-2.2-2.2ZM24.2 41.9H42c1.2 0 2.2 1 2.2 2.2 0 1.2-1 2.2-2.2 2.2H24.2c-1.2 0-2.2-1-2.2-2.2 0-1.2 1-2.2 2.2-2.2ZM24.2 51.4H42c1.2 0 2.2 1 2.2 2.2 0 1.2-1 2.2-2.2 2.2H24.2c-1.2 0-2.2-1-2.2-2.2 0-1.2 1-2.2 2.2-2.2Z" fill="#1E90FF"/></svg>