<svg width="97" height="84" fill="none" xmlns="http://www.w3.org/2000/svg"><path d="M73.775 51.126v-19.43h-51.2v19.43c0 3.32 12.8 11.314 25.6 11.314s25.6-7.993 25.6-11.314Z" fill="#232323"/><path d="m94.775 23.088-45.9 18.692c-.5.246-1 .246-1.4 0l-45.9-18.692c-2.1-.86-2.1-4.55 0-5.288L47.375.093c.4-.123.9-.123 1.4 0l45.8 17.709c2.2.86 2.3 4.427.2 5.287Z" fill="#3A3A3A"/><path d="M12.575 43.502c-.7 0-1.3-.738-1.3-1.599V27.64c0-.738.5-1.476 1.1-1.6l35.6-6.64c.7-.123 1.3.492 1.4 1.353.1.86-.4 1.599-1.1 1.722l-34.5 6.394v12.913c.1.983-.5 1.721-1.2 1.721Z" fill="#FFC700"/><path d="M10.375 55.185h4.4c.9 0 1.6-1.107 1.3-2.091l-2-8.608h-3l-2 8.608c-.2.984.4 2.09 1.3 2.09Z" fill="#FFC91D"/><path d="M48.175 24.687c2.43 0 4.4-1.321 4.4-2.951 0-1.63-1.97-2.952-4.4-2.952-2.43 0-4.4 1.322-4.4 2.952s1.97 2.95 4.4 2.95Z" fill="#CC9B21"/><path d="M12.675 47.191c1.712 0 3.1-1.707 3.1-3.812 0-2.105-1.388-3.812-3.1-3.812-1.712 0-3.1 1.707-3.1 3.812 0 2.105 1.388 3.812 3.1 3.812ZM48.175 23.95c2.43 0 4.4-1.322 4.4-2.952s-1.97-2.952-4.4-2.952c-2.43 0-4.4 1.322-4.4 2.952s1.97 2.951 4.4 2.951Z" fill="#EDB61D"/><path d="M93.175 44.977c1.7 5.903.6 11.683-2.3 13.036l-54.1 23.119c-3 1.23-6.7-2.46-8.4-8.362-1.7-5.903-.6-11.683 2.3-13.036l54.1-23.242c3-1.23 6.7 2.583 8.4 8.486Z" fill="#FFF1E1"/><path d="M73.075 53.586c1.7 5.903.6 11.683-2.3 13.035l-10.3 4.427c3-1.23 4-7.132 2.3-13.035-1.7-5.903-5.4-9.715-8.4-8.362l10.3-4.427c3-1.353 6.8 2.46 8.4 8.362Z" fill="#1E90FF"/><path d="M36.692 81.134c2.973-1.273 4.029-7.09 2.358-12.99-1.671-5.9-5.436-9.652-8.41-8.38-2.972 1.274-4.028 7.09-2.357 12.99 1.672 5.902 5.436 9.653 8.41 8.38Z" fill="#EDDFD1"/><path d="m72.975 77.566-7-2.213-4.3 7.009-3-10.576 11.3-4.796 3 10.576Z" fill="#489BE0"/></svg>