<svg width="120" height="120" fill="none" xmlns="http://www.w3.org/2000/svg"><path d="M33.4 58.1h64.1V37.8H33.4c-5.6 0-10.1 4.5-10.1 10.1s4.5 10.2 10.1 10.2Z" fill="#FFFCF1"/><path d="M33 61c-7.2 0-13-5.8-13-13s5.8-13 13-13h64.2c1.5 0 2.8 1.3 2.8 2.8 0 1.5-1.3 2.8-2.8 2.8H33c-4.1 0-7.4 3.3-7.4 7.4 0 4.1 3.3 7.4 7.4 7.4h64.2c1.5 0 2.8 1.3 2.8 2.8 0 1.5-1.3 2.8-2.8 2.8H33Z" fill="#FFC700"/><path d="m45.4 52-4.9-3.3-4.8 3.3V40.6h9.7V52Z" fill="#FFCA3B"/><path d="M33.4 84.1h64.1V63.8H33.4c-5.6 0-10.1 4.5-10.1 10.1s4.5 10.2 10.1 10.2Z" fill="#FFFCF1"/><path d="M33 87c-7.2 0-13-5.8-13-13s5.8-13 13-13h64.2c1.5 0 2.8 1.3 2.8 2.8 0 1.5-1.3 2.8-2.8 2.8H33c-4.1 0-7.4 3.3-7.4 7.4 0 4.1 3.3 7.4 7.4 7.4h64.2c1.5 0 2.8 1.3 2.8 2.8 0 1.5-1.3 2.8-2.8 2.8H33Z" fill="#1E90FF"/><path d="m91.4 77.9-4.8-3.3-4.8 3.3V66.6h9.6v11.3Z" fill="#1E90FF"/></svg>