<svg width="87" height="82" fill="none" xmlns="http://www.w3.org/2000/svg"><path d="M84.899 61.038H2.1C.946 61.038 0 60.145 0 59.053v-4.168C0 53.793.946 52.9 2.101 52.9H84.9c1.155 0 2.101.893 2.101 1.985v4.168c0 1.092-.946 1.985-2.101 1.985Z" fill="#D3AB84"/><path d="M10.928 80.49c0 .695.63 1.192 1.47 1.192h2.207c.84 0 1.471-.497 1.471-1.191V61.038h-5.149V80.49ZM70.924 61.038V80.49c0 .694.63 1.19 1.47 1.19h2.207c.841 0 1.472-.496 1.472-1.19V61.038h-5.15Z" fill="#BC9473"/><path d="M43.605 49.724H31.102l1.26-11.712h9.877l1.366 11.712ZM45.917 52.999H28.685c-.42 0-.84-.298-.84-.794v-.893c0-.894.735-1.588 1.68-1.588h15.551c.946 0 1.681.694 1.681 1.588v.893c0 .397-.315.794-.84.794Z" fill="#959595"/><path d="M65.25 40.196H9.351c-1.89 0-3.362-1.39-3.362-3.176V3.176C5.99 1.389 7.46 0 9.351 0H65.25c1.891 0 3.362 1.39 3.362 3.176V37.02c0 1.786-1.47 3.176-3.362 3.176Z" fill="#959595"/><path d="M10.132 33.86C9.514 33.86 9 33.438 9 32.93V4.115c0-.509.514-.933 1.132-.933h54.736c.618 0 1.132.424 1.132.933v28.898c0 .509-.514.933-1.132.933l-54.736-.085Z" fill="#89CCFF"/><path d="M6 33.946v3.968c0 1.348 1.48 2.396 3.383 2.396h56.234c1.903 0 3.383-1.048 3.383-2.396v-3.968H6Z" fill="#959595"/><path d="m71.24 52.205-1.997-.993 7.46-12.604L64.725 26.4l1.68-1.489 13.03 13.399-8.196 13.895Z" fill="#FFD86F"/><path d="M77.018 40.791c1.277 0 2.312-.978 2.312-2.183 0-1.206-1.035-2.184-2.312-2.184s-2.311.978-2.311 2.184c0 1.205 1.034 2.183 2.311 2.183ZM64.094 26.797l2.417-1.29a1.587 1.587 0 0 0 .735-2.184l-.525-.893c-.42-.794-1.471-1.092-2.312-.695l-2.416 1.29 2.101 3.772Z" fill="#4C87E5"/><path d="M58.63 29.576c1.393 0 2.522-1.066 2.522-2.382 0-1.315-1.129-2.382-2.522-2.382-1.392 0-2.521 1.067-2.521 2.382 0 1.316 1.129 2.382 2.521 2.382Z" fill="#FFD86F"/><path d="m56.214 21.537 6.199 10.719c3.152-1.588 4.308-5.36 2.627-8.337-1.786-2.977-5.674-4.07-8.826-2.382Z" fill="#568FFF"/><path d="M75.127 52.999H66.93c-.315 0-.63-.199-.63-.596v-.397c0-.893.735-1.588 1.68-1.588h5.99c.946 0 1.681.695 1.681 1.588v.397c.105.298-.21.596-.525.596Z" fill="#4C87E5"/></svg>