<svg width="89" height="88" fill="none" xmlns="http://www.w3.org/2000/svg"><path d="M37.9 87.75c20.932 0 37.9-18 37.9-40.204C75.8 25.34 58.832 7.34 37.9 7.34S0 25.341 0 47.546C0 69.75 16.968 87.75 37.9 87.75Z" fill="#389DFF"/><path d="M37.9 76.187c14.912 0 27-12.823 27-28.641 0-15.819-12.088-28.642-27-28.642s-27 12.823-27 28.642c0 15.818 12.088 28.641 27 28.641Z" fill="#F7F7F7"/><path d="M37.9 64.625c8.892 0 16.1-7.647 16.1-17.08 0-9.432-7.208-17.078-16.1-17.078-8.892 0-16.1 7.646-16.1 17.079 0 9.432 7.208 17.079 16.1 17.079Z" fill="#FF697E"/><path d="M37.9 55.183c3.976 0 7.2-3.42 7.2-7.637 0-4.219-3.224-7.638-7.2-7.638-3.977 0-7.2 3.42-7.2 7.638s3.223 7.637 7.2 7.637Z" fill="#FFD461"/><path d="M78.9 13.388 38.5 49.349c-.8.743-2.1.637-2.8-.212l-.1-.106c-.7-.849-.6-2.228.2-2.97L76.2 9.992c.8-.742 2.1-.636 2.8.212l.1.107c.8.954.7 2.333-.2 3.076Z" fill="#294151"/><path d="M88.2 13.6 75.1 25.269c-.2.212-.5.212-.8.212l-9.2-1.91c-.4-.106-.7-.424-.7-.954l-.2-9.972c0-.318.1-.53.3-.742L77.6.233c.6-.53 1.5-.105 1.5.743l.1 8.38c0 .425.3.85.7.956l7.8 1.59c.8.107 1.1 1.168.5 1.698Z" fill="#FF697E"/></svg>