<svg width="88" height="82" fill="none" xmlns="http://www.w3.org/2000/svg"><path d="M22.9 61.845H8.7c-1.1 0-1.9.954-1.9 2.015v12.412h18V63.966c0-1.167-.9-2.121-1.9-2.121Z" fill="#51B3FF"/><path d="M40.8 52.51H26.7c-1.1 0-1.9.954-1.9 2.015v21.853h18V54.525c0-1.167-.9-2.015-2-2.015Z" fill="#409EDD"/><path d="M58.8 42.962H44.7c-1.1 0-1.9.955-1.9 2.016v31.4h18v-31.4c-.1-1.167-.9-2.016-2-2.016Z" fill="#51B3FF"/><path d="M76.8 33.31H62.7c-1.1 0-1.9.954-1.9 2.015v41.053h18V35.325c-.1-1.167-.9-2.016-2-2.016Z" fill="#409EDD"/><path d="M84.6 81.257H.9c-.5 0-.9-.424-.9-.954v-2.97c0-.531.4-.955.9-.955h83.7c.5 0 .9.424.9.954v2.97c0 .531-.4.955-.9.955Z" fill="#FFDD71"/><path d="M70.1 0h-.7c-.3 0-.6.318-.6.636v32.567h2V.743C70.7.318 70.4 0 70.1 0Z" fill="#F2F2F2"/><path d="M87.2 15.275H68.8V2.545h18.4l-3.6 6.366 3.6 6.364Z" fill="#FFC700"/></svg>